<svg width="407" height="357" viewBox="0 0 407 357" fill="none" xmlns="http://www.w3.org/2000/svg">
<g clip-path="url(#clip0_505_6955)">
<mask id="mask0_505_6955" style="mask-type:luminance" maskUnits="userSpaceOnUse" x="0" y="0" width="407" height="357">
<path d="M407 0H0V356.125H407V0Z" fill="white"/>
</mask>
<g mask="url(#mask0_505_6955)">
<path fill-rule="evenodd" clip-rule="evenodd" d="M112.948 267.184C175.327 267.184 225.897 216.541 225.897 154.068C225.897 91.5964 175.327 40.9527 112.948 40.9527C50.5686 40.9527 0 91.5964 0 154.068C0 216.541 50.5686 267.184 112.948 267.184ZM285.539 40.9527C306.332 40.9527 323.189 57.834 323.189 78.658C323.189 99.482 306.332 116.363 285.539 116.363C264.745 116.363 247.89 99.482 247.89 78.658C247.89 57.834 264.745 40.9527 285.539 40.9527ZM238.265 16.9585C245.097 16.9585 250.634 22.5045 250.634 29.3459C250.634 36.1872 245.097 41.7333 238.265 41.7333C231.434 41.7333 225.897 36.1872 225.897 29.3459C225.897 22.5045 231.434 16.9585 238.265 16.9585Z" fill="url(#paint0_linear_505_6955)"/>
<path d="M205.361 339.167C255.63 339.167 296.383 334.754 296.383 329.312C296.383 323.869 255.63 319.458 205.361 319.458C155.091 319.458 114.339 323.869 114.339 329.312C114.339 334.754 155.091 339.167 205.361 339.167Z" fill="#DFE5ED"/>
<path d="M336.276 325.456C351.575 325.456 363.979 327.374 363.979 329.74C363.979 332.107 351.575 334.025 336.276 334.025C320.978 334.025 308.574 332.107 308.574 329.74C308.574 327.374 320.978 325.456 336.276 325.456Z" fill="#DFE5ED"/>
<path fill-rule="evenodd" clip-rule="evenodd" d="M114.15 151.826C111.725 152.767 111.095 151.457 109.024 151.457C106.953 151.457 104.595 152.222 107.079 153.62C109.563 155.018 109.892 156.528 111.441 155.773C112.99 155.018 116.575 150.884 114.15 151.826Z" fill="#E1AAA3"/>
<path fill-rule="evenodd" clip-rule="evenodd" d="M178.841 118.248C179.928 121.663 175.338 125.024 175.338 127.166C175.338 129.309 179.876 128.838 178.841 130.89C177.805 132.943 172.869 138.674 175.338 142.996C177.805 147.319 183.123 154.886 200.484 153.724C217.846 152.562 232.582 136.784 229.079 137.603C225.573 138.422 225.373 127.216 220.072 117.742C219.636 93.1009 177.753 114.832 178.841 118.248Z" fill="#212121"/>
<path fill-rule="evenodd" clip-rule="evenodd" d="M200.691 160.179C207.278 160.179 214.755 150.809 214.755 145.45C214.755 140.091 207.278 140.771 200.691 140.771C194.106 140.771 188.887 140.972 188.887 146.331C188.887 151.69 194.106 160.179 200.691 160.179Z" fill="#E1AAA3"/>
<path fill-rule="evenodd" clip-rule="evenodd" d="M149.614 319.383C134.713 324.968 132.714 331.475 136.272 331.475C139.831 331.475 153.862 327.376 157.949 324.432C162.036 321.488 157.906 317.681 155.556 317.681C153.205 317.681 153.205 318.038 149.614 319.383Z" fill="#212121"/>
<path fill-rule="evenodd" clip-rule="evenodd" d="M263.678 322.369C278.579 327.952 280.579 334.461 277.021 334.461C273.461 334.461 259.43 330.362 255.343 327.418C251.256 324.472 255.387 320.665 257.738 320.665C260.088 320.665 260.088 321.023 263.678 322.369Z" fill="#212121"/>
<path fill-rule="evenodd" clip-rule="evenodd" d="M150.403 318.427C149.828 315.667 140.57 258.552 167.159 215.54C176.199 200.916 233.538 204.097 239.268 210.717C257.204 231.437 259.983 300.61 259.983 321.186C259.983 321.974 257.154 322.727 256.613 321.974C249.533 312.115 237.333 275.212 231.864 264.262C224.311 249.135 214.699 240.815 203.98 240.815C193.26 240.815 175.23 258.409 167.159 274.496C159.087 290.581 157.223 316.785 157.223 318.427C157.223 320.068 150.978 321.186 150.403 318.427Z" fill="#616161"/>
<path fill-rule="evenodd" clip-rule="evenodd" d="M166.086 217.318C166.437 216.722 166.795 216.129 167.159 215.54C176.201 200.916 233.539 204.097 239.27 210.717C240.181 211.769 241.053 212.947 241.887 214.236C223.906 210.717 213.535 216.563 200.653 218.632C187.197 220.794 169.88 220.516 166.086 217.318Z" fill="#424242"/>
<path fill-rule="evenodd" clip-rule="evenodd" d="M179.35 244.283C201.822 222.984 221.217 235.036 227.783 244.283C243.744 266.76 252.613 310.731 256.614 321.976C249.534 312.115 237.334 275.212 231.865 264.26C224.312 249.135 214.7 240.815 203.98 240.815C193.261 240.815 175.231 258.41 167.159 274.496C159.088 290.581 157.224 316.785 157.224 318.427C154.748 313.421 156.879 265.583 179.35 244.283Z" fill="#424242"/>
<path fill-rule="evenodd" clip-rule="evenodd" d="M283.409 161.149C285.285 161.939 288.434 161.945 290.065 161.698C291.697 161.451 292.172 164.091 290.065 164.603C287.961 165.116 286.63 165.778 284.147 165.778C281.663 165.778 281.534 160.358 283.409 161.149Z" fill="#E1AAA3"/>
<path fill-rule="evenodd" clip-rule="evenodd" d="M175.853 171.084C177.052 168.84 176.269 169.851 176.269 166.066C176.269 162.279 173.969 159.21 171.134 159.21C168.299 159.21 166 162.279 166 166.066C166 169.851 174.654 173.33 175.853 171.084Z" fill="#7E7E7E"/>
<path fill-rule="evenodd" clip-rule="evenodd" d="M236.873 172.251C238.072 170.006 241.156 166.393 239.269 162.353C237.383 158.312 233.866 164.351 231.03 164.351C228.195 164.351 225.039 171.12 225.039 174.905C225.039 178.692 235.674 174.496 236.873 172.251Z" fill="#7E7E7E"/>
<path fill-rule="evenodd" clip-rule="evenodd" d="M162.036 154.542C160.08 159.096 155.988 171.184 155.482 172.919C149.784 168.043 138.717 162.959 132.343 159.698C128.311 157.635 125.322 155.236 123.561 153.033C122.539 151.755 121.745 148.741 120.079 148.164C117.134 147.143 114.12 149.312 110.109 156.067C105.264 158.648 100.667 157.042 98.169 157.042C95.6712 157.042 94.4951 157.747 98.169 159.698C101.843 161.649 108.074 161.139 109.57 160.896C111.067 160.653 115.52 158.829 117.952 157.042C122.681 162.586 131.674 174.927 141.817 181.722C151.96 188.517 159.157 192.009 162.036 187.118C164.915 182.226 173.853 168.343 174.932 165.751C176.01 163.159 163.992 149.988 162.036 154.542Z" fill="#F1CBC7"/>
<path fill-rule="evenodd" clip-rule="evenodd" d="M162.037 154.542C161.7 155.327 161.299 156.336 160.864 157.477C172.302 165.139 169.851 168.665 169.851 174.454C172.302 170.484 174.439 166.937 174.932 165.752C176.011 163.159 163.992 149.989 162.037 154.542Z" fill="#E1AAA3"/>
<path fill-rule="evenodd" clip-rule="evenodd" d="M238.433 161.809C239.27 166.66 242.138 173.635 243.471 175.197C249.489 171.142 271.052 162.072 274.169 160.491C277.286 158.91 275.383 158.057 278.622 157.407C281.861 156.756 284.095 158.71 284.095 160.491C284.095 162.272 288.307 170.308 289.755 170.84C291.203 171.371 295.808 170.024 297.985 169.411C300.163 168.797 300.539 171.251 298.757 172C296.974 172.75 290.885 174.674 289.292 174.674C287.702 174.674 278.531 169.042 277.978 165.754C272.726 170.84 265.412 175.863 257.59 182.324C249.767 188.785 239.248 193.398 236.053 189.411C232.858 185.424 226.209 171.603 226.209 168.679C226.209 165.754 237.596 156.958 238.433 161.809Z" fill="#F1CBC7"/>
<path fill-rule="evenodd" clip-rule="evenodd" d="M238.433 161.809C238.57 162.608 238.763 163.464 238.996 164.344C226.209 171.135 234.142 187.144 239.988 190.895C238.282 190.927 236.906 190.476 236.053 189.411C232.858 185.424 226.209 171.603 226.209 168.679C226.209 165.754 237.596 156.958 238.433 161.809Z" fill="#E1AAA3"/>
<path fill-rule="evenodd" clip-rule="evenodd" d="M189.667 144.062C182.76 141.936 175.647 132.592 171.465 136.959C168.678 139.87 165.535 145.732 162.036 154.542C170.55 161.86 175.154 167.374 175.851 171.084C176.705 169.54 178.188 168.082 180.299 166.711C181.966 173.687 180.911 181.288 177.133 189.516C171.465 201.855 168.373 209.234 166.644 214.564C164.915 219.895 195.338 217.201 214.755 211.72C227.699 208.064 235.871 207.73 239.268 210.716C231.93 202.924 227.187 195.474 225.038 188.365C222.89 181.258 222.607 174.04 224.19 166.711L225.038 174.905C229.293 167.929 234.036 163.745 239.268 162.353C236.329 154.542 231.937 138.874 228.064 135.817C225.32 133.651 218.789 139.187 212.131 142.252C211.192 146.219 209.179 155.741 201.566 155.741C193.75 155.741 193.75 150.089 189.667 144.062Z" fill="white"/>
<path fill-rule="evenodd" clip-rule="evenodd" d="M239.269 210.716C231.931 202.923 227.187 195.474 225.039 188.366C221.815 177.703 223.769 170.633 224.191 166.711C216.014 179.794 221.04 194.463 239.269 210.716Z" fill="#D5D5D6"/>
<path fill-rule="evenodd" clip-rule="evenodd" d="M184.355 118.15C180.986 133.686 184.676 141.743 188.887 146.247C193.097 150.752 204.429 153.458 211.624 145.427C218.82 137.397 217.707 121 215.072 114.506C212.435 108.012 187.727 102.614 184.355 118.15Z" fill="#F1CBC7"/>
<path d="M198.126 139.634C198.984 140.563 201.092 140.342 202.004 139.634" stroke="#CC6E64" stroke-width="0.75" stroke-linecap="round"/>
<path fill-rule="evenodd" clip-rule="evenodd" d="M184.356 118.15C183.805 120.692 183.442 123.034 183.24 125.193C195.961 128.508 203.48 122.098 210.116 120.497C210.657 123.45 214.756 127.43 217.089 127.43C217.115 122.235 216.245 117.392 215.073 114.506C212.436 108.012 187.727 102.614 184.356 118.15Z" fill="#E1AAA3"/>
<path fill-rule="evenodd" clip-rule="evenodd" d="M217.835 135.498C219.922 134.508 220.071 133.671 220.071 131.417C220.071 129.162 219.071 127.335 217.835 127.335C216.6 127.335 214.755 130.279 214.755 132.533C214.755 134.787 215.749 136.489 217.835 135.498Z" fill="#F1CBC7"/>
<path fill-rule="evenodd" clip-rule="evenodd" d="M182.619 135.498C180.533 134.508 180.384 133.671 180.384 131.417C180.384 129.162 181.384 127.335 182.619 127.335C183.855 127.335 185.699 130.279 185.699 132.533C185.699 134.787 184.706 136.489 182.619 135.498Z" fill="#F1CBC7"/>
<path d="M192.85 134.247C193.795 134.247 194.562 133.346 194.562 132.234C194.562 131.123 193.795 130.222 192.85 130.222C191.904 130.222 191.138 131.123 191.138 132.234C191.138 133.346 191.904 134.247 192.85 134.247Z" fill="#212121"/>
<path d="M207.281 134.247C208.226 134.247 208.993 133.346 208.993 132.234C208.993 131.123 208.226 130.222 207.281 130.222C206.337 130.222 205.57 131.123 205.57 132.234C205.57 133.346 206.337 134.247 207.281 134.247Z" fill="#212121"/>
<path d="M200.323 146.428C201.27 146.428 202.035 145.527 202.035 144.416C202.035 143.305 201.27 142.404 200.323 142.404C199.379 142.404 198.612 143.305 198.612 144.416C198.612 145.527 199.379 146.428 200.323 146.428Z" fill="#B6736A"/>
<path fill-rule="evenodd" clip-rule="evenodd" d="M179.928 121.663C183.706 124.502 192.635 124.811 202.896 120.817C206.152 119.55 208.708 119.215 210.733 119.239C213.134 122.688 216.214 126.261 217.413 126.165C218.103 126.11 220.121 120.417 220.072 118.248C219.989 114.641 219.051 99.6059 209.351 101.023C198.514 90.1886 186.654 98.7139 181.554 103.089C176.453 107.464 176.148 118.824 179.928 121.663Z" fill="#212121"/>
<path d="M188.887 129.309C190.559 127.335 192.828 126.921 193.46 126.921" stroke="#212121" stroke-width="0.75" stroke-linecap="round"/>
<path d="M210.602 128.115C209.72 126.141 207.271 124.973 206.641 124.973" stroke="#212121" stroke-width="0.75" stroke-linecap="round"/>
<path fill-rule="evenodd" clip-rule="evenodd" d="M244.372 223.36C242.404 218.395 240.147 214.411 237.602 211.41C231.894 209.917 229.304 209.687 229.832 210.716C231.709 214.382 242.101 223.158 244.372 223.36Z" fill="#424242"/>
<path fill-rule="evenodd" clip-rule="evenodd" d="M331.344 223.577H342.708V259.854H331.344V223.577Z" fill="#646C75"/>
<path d="M335.7 222.426C375.077 222.426 407 190.585 407 151.308C407 112.032 375.077 80.1914 335.7 80.1914C296.323 80.1914 264.4 112.032 264.4 151.308C264.4 190.585 296.323 222.426 335.7 222.426Z" fill="#005DCB" fill-opacity="0.2" stroke="white" stroke-width="3"/>
<path d="M351.814 91.0815C385.158 100.029 404.972 134.247 396.074 167.509" stroke="white" stroke-opacity="0.6" stroke-width="4" stroke-linecap="round" stroke-linejoin="round"/>
<path fill-rule="evenodd" clip-rule="evenodd" d="M329.516 232.468H344.39C345.335 232.468 346.101 233.235 346.101 234.181V328.444C346.101 329.392 345.335 330.158 344.39 330.158H329.516C328.571 330.158 327.805 329.392 327.805 328.444V234.181C327.805 233.235 328.571 232.468 329.516 232.468Z" fill="#82A0C4"/>
<path fill-rule="evenodd" clip-rule="evenodd" d="M167.933 217.452C165.107 222.519 163.345 226.012 162.645 227.927C167.497 227.927 171.32 224.749 174.116 218.389L167.933 217.452Z" fill="#424242"/>
</g>
</g>
<defs>
<linearGradient id="paint0_linear_505_6955" x1="247.778" y1="79.5149" x2="107.649" y2="302.652" gradientUnits="userSpaceOnUse">
<stop stop-color="#3C5DFF"/>
<stop offset="1" stop-color="#5296FB"/>
</linearGradient>
<clipPath id="clip0_505_6955">
<rect width="407" height="356.125" fill="white"/>
</clipPath>
</defs>
</svg>
